<svg width="19" height="18" viewBox="0 0 19 18" fill="none" xmlns="http://www.w3.org/2000/svg">
<path d="M11.2537 1.60023L11.6435 0.730251C11.7609 0.468232 11.6419 0.161353 11.3778 0.0449149C11.1136 -0.071593 10.8043 0.0464618 10.687 0.308517L10.1273 1.55783H8.01621L7.45653 0.308482C7.33916 0.0464618 7.02983 -0.071593 6.76572 0.0448798C6.50161 0.161317 6.38265 0.468197 6.50002 0.730216L6.88975 1.60019C5.84788 1.80305 5.05927 2.71556 5.05927 3.80776V4.67313H13.0843V3.80776C13.0842 2.71563 12.2956 1.80305 11.2537 1.60023Z" fill="#00245C"/>
<path d="M17.6201 9.17314H14.4799V8.09356C16.0598 7.84388 17.2712 6.48284 17.2712 4.84624V4.15395C17.2712 3.86721 17.0368 3.63472 16.7478 3.63472C16.4588 3.63472 16.2245 3.86721 16.2245 4.15395V4.84624C16.2245 5.90817 15.4789 6.79998 14.4799 7.03511V6.57702C14.4799 6.09985 14.0886 5.71165 13.6076 5.71165H9.59513V11.7693C9.59513 12.056 9.36079 12.2885 9.07177 12.2885C8.78271 12.2885 8.5484 12.056 8.5484 11.7693V5.71162H4.5359C4.05492 5.71162 3.66363 6.09981 3.66363 6.57699V7.03507C2.66466 6.79995 1.91908 5.90814 1.91908 4.84621V4.15391C1.91908 3.86718 1.68473 3.63469 1.39571 3.63469C1.10669 3.63469 0.872346 3.86718 0.872346 4.15391V4.84621C0.872346 6.4828 2.08375 7.84381 3.66366 8.09352V9.1731H0.523365C0.234343 9.1731 0 9.40559 0 9.69232C0 9.97906 0.234343 10.2115 0.523365 10.2115H3.66359V11.2911C2.08368 11.5408 0.872275 12.9018 0.872275 14.5384V15.2307C0.872275 15.5175 1.10662 15.75 1.39564 15.75C1.68466 15.75 1.91901 15.5175 1.91901 15.2307V14.5384C1.91901 13.4765 2.66459 12.5847 3.66356 12.3496V12.6346C3.66359 15.5931 6.0897 18 9.07173 18C12.0538 18 14.4799 15.5931 14.4799 12.6347V12.3496C15.4788 12.5848 16.2244 13.4766 16.2244 14.5385V15.2308C16.2244 15.5175 16.4588 15.75 16.7478 15.75C17.0368 15.75 17.2712 15.5175 17.2712 15.2308V14.5385C17.2712 12.9019 16.0597 11.5409 14.4798 11.2912V10.2116H17.6201C17.9091 10.2116 18.1434 9.97913 18.1434 9.6924C18.1434 9.40566 17.9091 9.17314 17.6201 9.17314Z" fill="#00245C"/>
</svg>
