<svg width="17" height="16" viewBox="0 0 17 16" fill="none" xmlns="http://www.w3.org/2000/svg">
<path d="M15.4286 3.69231H15.1261V3.07692C15.1261 1.38031 13.7689 0 12.1008 0H4.84034C3.17224 0 1.81513 1.38031 1.81513 3.07692V3.69231H1.51261C1.11158 3.6928 0.727127 3.85504 0.443562 4.14345C0.159998 4.43186 0.00048036 4.82289 0 5.23077V6.76923C0 6.93244 0.0637453 7.08897 0.177213 7.20437C0.29068 7.31978 0.444575 7.38462 0.605042 7.38462C0.765509 7.38462 0.919404 7.31978 1.03287 7.20437C1.14634 7.08897 1.21008 6.93244 1.21008 6.76923V5.23077C1.21008 5.14916 1.24196 5.0709 1.29869 5.0132C1.35542 4.95549 1.43237 4.92308 1.51261 4.92308H1.81513V11.0769C1.81513 12.0788 2.29553 12.9618 3.02642 13.5237L3.02521 13.5385V14.7692C3.02521 15.0957 3.1527 15.4087 3.37964 15.6395C3.60657 15.8703 3.91436 16 4.23529 16H4.84034C5.16127 16 5.46906 15.8703 5.69599 15.6395C5.92293 15.4087 6.05042 15.0957 6.05042 14.7692V14.1538H10.8908V14.7692C10.8908 15.0957 11.0182 15.4087 11.2452 15.6395C11.4721 15.8703 11.7799 16 12.1008 16H12.7059C13.0268 16 13.3346 15.8703 13.5615 15.6395C13.7885 15.4087 13.916 15.0957 13.916 14.7692V13.5385L13.9148 13.5237C14.6456 12.9612 15.1261 12.0788 15.1261 11.0769V4.92308H15.4286C15.5088 4.92308 15.5858 4.95549 15.6425 5.0132C15.6992 5.0709 15.7311 5.14916 15.7311 5.23077V6.76923C15.7311 6.93244 15.7948 7.08897 15.9083 7.20437C16.0218 7.31978 16.1757 7.38462 16.3361 7.38462C16.4966 7.38462 16.6505 7.31978 16.764 7.20437C16.8774 7.08897 16.9412 6.93244 16.9412 6.76923V5.23077C16.9412 4.38277 16.2629 3.69231 15.4286 3.69231ZM4.53782 12.3077C4.41859 12.3077 4.30055 12.2837 4.19041 12.2373C4.08028 12.1908 3.98022 12.1228 3.89595 12.037C3.81167 11.9512 3.74483 11.8494 3.69924 11.7374C3.65366 11.6253 3.63021 11.5053 3.63025 11.384C3.63029 11.2627 3.65381 11.1427 3.69948 11.0307C3.74514 10.9186 3.81204 10.8169 3.89637 10.7312C3.9807 10.6454 4.08081 10.5775 4.19097 10.5311C4.30113 10.4847 4.4192 10.4609 4.53842 10.4609C4.7792 10.461 5.01009 10.5584 5.18029 10.7316C5.35049 10.9048 5.44606 11.1397 5.44598 11.3846C5.4459 11.6295 5.35018 11.8643 5.17986 12.0375C5.00955 12.2106 4.7786 12.3078 4.53782 12.3077ZM12.4034 12.3077C12.2841 12.3077 12.1661 12.2837 12.056 12.2373C11.9458 12.1908 11.8458 12.1228 11.7615 12.037C11.6772 11.9512 11.6104 11.8494 11.5648 11.7374C11.5192 11.6253 11.4958 11.5053 11.4958 11.384C11.4958 11.2627 11.5194 11.1427 11.565 11.0307C11.6107 10.9186 11.6776 10.8169 11.7619 10.7312C11.8463 10.6454 11.9464 10.5775 12.0565 10.5311C12.1667 10.4847 12.2847 10.4609 12.404 10.4609C12.6447 10.461 12.8756 10.5584 13.0458 10.7316C13.216 10.9048 13.3116 11.1397 13.3115 11.3846C13.3114 11.6295 13.2157 11.8643 13.0454 12.0375C12.8751 12.2106 12.6441 12.3078 12.4034 12.3077ZM13.916 7.06154C13.916 7.66277 13.4906 8.18646 12.9062 8.27631C9.96565 8.7262 6.97553 8.7262 4.03503 8.27631C3.45055 8.18646 3.02521 7.66277 3.02521 7.06154V3.69231C3.02521 3.36589 3.1527 3.05284 3.37964 2.82202C3.60657 2.59121 3.91436 2.46154 4.23529 2.46154H12.7059C13.0268 2.46154 13.3346 2.59121 13.5615 2.82202C13.7885 3.05284 13.916 3.36589 13.916 3.69231V7.06154Z" fill="#00245C"/>
</svg>
