<svg width="50" height="42" viewBox="0 0 50 42" fill="none" xmlns="http://www.w3.org/2000/svg">
<path d="M30.1175 7.20876C32.4251 8.65562 34.0432 11.104 34.3378 13.946C35.3055 14.4012 36.3615 14.6377 37.4308 14.6386C41.4737 14.6386 44.7505 11.3619 44.7505 7.31962C44.7505 3.27676 41.4737 0 37.4308 0C33.4266 0.00124568 30.1785 3.21946 30.1175 7.20876ZM25.3222 22.1955C29.3651 22.1955 32.6418 18.9182 32.6418 14.8759C32.6418 10.8337 29.3644 7.55692 25.3222 7.55692C21.28 7.55692 18.0013 10.8343 18.0013 14.8765C18.0013 18.9188 21.28 22.1955 25.3222 22.1955ZM28.4271 22.6944H22.2161C17.0484 22.6944 12.8442 26.8992 12.8442 32.0669V39.6625L12.8635 39.7814L13.3867 39.9453C18.3184 41.4862 22.6029 42 26.1294 42C33.0174 42 37.0098 40.0362 37.2558 39.911L37.7448 39.6637H37.7971V32.0669C37.7989 26.8992 33.5948 22.6944 28.4271 22.6944ZM40.5369 15.1381H34.3739C34.3113 17.5179 33.3106 19.7764 31.5898 21.4214C36.1833 22.7872 39.5441 27.0468 39.5441 32.0782V34.4188C45.6293 34.1958 49.1359 32.4712 49.367 32.3553L49.8559 32.1074H49.9082V24.5094C49.9082 19.3423 45.704 15.1381 40.5369 15.1381ZM12.4786 14.6399C13.9105 14.6399 15.2428 14.2219 16.3714 13.51C16.7255 11.2195 17.9441 9.15186 19.7764 7.73257C19.7839 7.59554 19.797 7.45976 19.797 7.32149C19.797 3.27863 16.5196 0.00186839 12.4786 0.00186839C8.43513 0.00186839 5.15899 3.27863 5.15899 7.32149C5.15899 11.3625 8.43513 14.6399 12.4786 14.6399ZM19.0521 21.4214C17.3409 19.7842 16.3416 17.5401 16.2698 15.173C16.0413 15.1562 15.8152 15.1381 15.5822 15.1381H9.37188C4.20417 15.1381 0 19.3423 0 24.5094V32.1062L0.0193081 32.2233L0.542494 32.3883C4.49878 33.6234 8.02966 34.1927 11.0965 34.3721V32.0782C11.0978 27.0468 14.4574 22.7885 19.0521 21.4214Z" fill="#00245C"/>
</svg>
