<svg width="34" height="34" viewBox="0 0 34 34" fill="none" xmlns="http://www.w3.org/2000/svg">
<path d="M0 4C0 1.79086 1.79086 0 4 0H12C14.2091 0 16 1.79086 16 4V12C16 14.2091 14.2091 16 12 16H4C1.79086 16 0 14.2091 0 12V4Z" fill="#00245C"/>
<path d="M18 4C18 1.79086 19.7909 0 22 0H30C32.2091 0 34 1.79086 34 4V12C34 14.2091 32.2091 16 30 16H22C19.7909 16 18 14.2091 18 12V4Z" fill="#00245C"/>
<path d="M0 22C0 19.7909 1.79086 18 4 18H12C14.2091 18 16 19.7909 16 22V30C16 32.2091 14.2091 34 12 34H4C1.79086 34 0 32.2091 0 30V22Z" fill="#00245C"/>
<path d="M18 22C18 19.7909 19.7909 18 22 18H30C32.2091 18 34 19.7909 34 22V30C34 32.2091 32.2091 34 30 34H22C19.7909 34 18 32.2091 18 30V22Z" fill="#00245C"/>
</svg>
