<svg width="32" height="33" viewBox="0 0 32 33" fill="none" xmlns="http://www.w3.org/2000/svg">
<path d="M25.3341 16.2498C24.5968 16.2498 24.0008 16.8472 24.0008 17.5831V28.2502C24.0008 28.9848 23.4034 29.5835 22.6675 29.5835H4.00013C3.26405 29.5835 2.66684 28.9848 2.66684 28.2502V9.5828C2.66684 8.84815 3.26405 8.2495 4.00013 8.2495H14.6672C15.4046 8.2495 16.0005 7.65211 16.0005 6.91621C16.0005 6.18012 15.4046 5.58266 14.6672 5.58266H4.00013C1.79475 5.58266 0 7.37741 0 9.5828V28.2502C0 30.4556 1.79475 32.2503 4.00013 32.2503H22.6675C24.8729 32.2503 26.6676 30.4556 26.6676 28.2502V17.5831C26.6676 16.8458 26.0714 16.2498 25.3341 16.2498Z" fill="#00245C"/>
<path d="M12.5017 15.0351C12.409 15.1282 12.3455 15.2463 12.319 15.375L11.3764 20.09C11.3324 20.3085 11.4018 20.5339 11.559 20.6925C11.6211 20.7544 11.6947 20.8034 11.7757 20.8368C11.8567 20.8702 11.9435 20.8873 12.0312 20.8872C12.0737 20.8872 12.1178 20.8832 12.1618 20.874L16.8753 19.9313C17.0059 19.9045 17.1246 19.842 17.2166 19.7485L27.7664 9.19872L23.0528 4.48544L12.5017 15.0351ZM31.025 1.22539C29.7251 -0.0747148 27.6103 -0.0747148 26.3114 1.22539L24.4661 3.07064L29.1797 7.78418L31.025 5.93868C31.6544 5.31072 32.0011 4.47325 32.0011 3.5826C32.0011 2.69194 31.6544 1.85454 31.025 1.22539Z" fill="#00245C"/>
</svg>
