<svg width="31" height="31" viewBox="0 0 31 31" fill="none" xmlns="http://www.w3.org/2000/svg">
<path fill-rule="evenodd" clip-rule="evenodd" d="M15.5 29.75C23.3701 29.75 29.75 23.3701 29.75 15.5C29.75 7.62994 23.3701 1.25 15.5 1.25C7.62994 1.25 1.25 7.62994 1.25 15.5C1.25 23.3701 7.62994 29.75 15.5 29.75ZM15.5 31C24.0604 31 31 24.0604 31 15.5C31 6.93959 24.0604 0 15.5 0C6.93959 0 0 6.93959 0 15.5C0 24.0604 6.93959 31 15.5 31Z" fill="white"/>
<path d="M23.3233 14.694H10.6939L14.7358 10.7243C14.8088 10.6551 14.8669 10.5723 14.907 10.4808C14.947 10.3893 14.9681 10.2909 14.9689 10.1913C14.9698 10.0917 14.9505 9.99296 14.9121 9.90079C14.8737 9.80862 14.817 9.72488 14.7453 9.65446C14.6736 9.58404 14.5883 9.52835 14.4945 9.49064C14.4006 9.45293 14.3001 9.43395 14.1987 9.43482C14.0973 9.43568 13.9971 9.45637 13.9039 9.49568C13.8108 9.53498 13.7265 9.59212 13.656 9.66375L8.31054 14.9138C8.16738 15.0544 8.08695 15.2451 8.08695 15.444C8.08695 15.6429 8.16738 15.8336 8.31054 15.9743L13.656 21.2243C13.8001 21.3609 13.993 21.4365 14.1932 21.4348C14.3934 21.4331 14.585 21.3542 14.7265 21.2151C14.8681 21.0761 14.9484 20.888 14.9502 20.6913C14.9519 20.4947 14.8749 20.3052 14.7358 20.1638L10.6939 16.194H23.3233C23.5258 16.194 23.7201 16.115 23.8633 15.9743C24.0065 15.8337 24.087 15.6429 24.087 15.444C24.087 15.2451 24.0065 15.0543 23.8633 14.9137C23.7201 14.773 23.5258 14.694 23.3233 14.694Z" fill="white"/>
</svg>
