<svg width="18" height="16" viewBox="0 0 18 16" fill="none" xmlns="http://www.w3.org/2000/svg">
<path d="M8.60975 0C3.92968 0 0.132912 3.57868 0.132912 7.99579C0.132912 12.4171 3.92968 16 8.60971 16C13.2923 16 17.0859 12.4171 17.0859 7.99579C17.0859 3.57868 13.2923 0 8.60975 0ZM9.21381 12.4472C9.01693 12.6126 8.78877 12.6957 8.5303 12.6957C8.26287 12.6957 8.0296 12.614 7.83049 12.4505C7.63106 12.2873 7.53115 12.0587 7.53115 11.7651C7.53115 11.5046 7.62784 11.2853 7.82059 11.1076C8.01335 10.9299 8.2498 10.8411 8.5303 10.8411C8.80632 10.8411 9.03864 10.9299 9.22724 11.1076C9.41552 11.2853 9.50997 11.5045 9.50997 11.7651C9.50962 12.0545 9.411 12.2819 9.21381 12.4472ZM11.6687 6.70351C11.5175 6.96823 11.3378 7.19649 11.1294 7.38896C10.9217 7.5814 10.548 7.90484 10.0087 8.35958C9.85999 8.48789 9.74034 8.60052 9.65067 8.69748C9.56101 8.79477 9.49399 8.88357 9.45026 8.9643C9.40773 9.04155 9.37362 9.12267 9.34847 9.20642C9.32452 9.28682 9.28848 9.42868 9.23964 9.63134C9.15669 10.0614 8.89598 10.2764 8.45783 10.2764C8.22997 10.2764 8.03851 10.2062 7.88246 10.0656C7.72704 9.92496 7.64951 9.71626 7.64951 9.43921C7.64951 9.09198 7.70663 8.7911 7.82055 8.53664C7.93385 8.28215 8.08543 8.059 8.27371 7.86657C8.4623 7.67413 8.7163 7.44583 9.03637 7.18111C9.31686 6.94952 9.51951 6.77487 9.64427 6.65709C9.76831 6.5403 9.87443 6.40771 9.95955 6.26318C10.0454 6.11831 10.0875 5.96141 10.0875 5.79187C10.0875 5.46091 9.95767 5.18204 9.69664 4.95466C9.43593 4.72729 9.09957 4.61344 8.6876 4.61344C8.20544 4.61344 7.85059 4.72818 7.62274 4.95766C7.39488 5.18715 7.20248 5.52504 7.04451 5.97167C6.89517 6.43909 6.61244 6.67276 6.19662 6.67276C5.95122 6.67276 5.74414 6.59114 5.57533 6.4279C5.40683 6.26466 5.32259 6.0879 5.32259 5.89757C5.32259 5.50485 5.4563 5.10671 5.72341 4.70347C5.99083 4.30022 6.38078 3.96622 6.89356 3.7018C7.40603 3.43708 8.0044 3.30455 8.6876 3.30455C9.32295 3.30455 9.88363 3.41537 10.37 3.63674C10.8563 3.85778 11.2322 4.15866 11.4974 4.5393C11.7622 4.91965 11.895 5.33316 11.895 5.77979C11.8956 6.13069 11.82 6.43879 11.6687 6.70351Z" fill="#00245C"/>
</svg>
