<svg width="17" height="16" viewBox="0 0 17 16" fill="none" xmlns="http://www.w3.org/2000/svg">
<path d="M16.2995 7.80646C16.3684 7.72883 16.4215 7.63773 16.4557 7.53855C16.49 7.43936 16.5046 7.3341 16.4988 7.22898C16.4929 7.12386 16.4668 7.02101 16.4218 6.92651C16.3768 6.83201 16.314 6.74777 16.237 6.67878L9.0864 0.215913C8.76184 -0.0772654 8.24148 -0.0711239 7.92375 0.229759L0.748845 7.02335C0.431113 7.32423 0.415518 7.8286 0.714318 8.14941L0.894203 8.34293C1.19264 8.66374 1.67503 8.70199 1.97096 8.4281L2.50717 7.93209V15.1938C2.50717 15.6393 2.85667 16 3.28768 16H6.08448C6.51549 16 6.86499 15.6393 6.86499 15.1938V10.1135H10.4323V15.1938C10.4261 15.639 10.7345 15.9997 11.1655 15.9997H14.1294C14.5605 15.9997 14.91 15.639 14.91 15.1935V8.03434C14.91 8.03434 15.0581 8.16838 15.2408 8.33425C15.4232 8.49981 15.8062 8.36706 16.0963 8.03725L16.2995 7.80646Z" fill="#00245C"/>
</svg>
