<svg width="27" height="17" viewBox="0 0 27 17" fill="none" xmlns="http://www.w3.org/2000/svg">
<path d="M13.5001 12.551C15.7958 12.551 17.6568 10.7383 17.6568 8.50229C17.6568 6.26625 15.7958 4.45358 13.5001 4.45358C11.2044 4.45358 9.34336 6.26625 9.34336 8.50229C9.34336 10.7383 11.2044 12.551 13.5001 12.551Z" fill="#00245C"/>
<path d="M26.5859 7.38079C23.3907 3.62005 18.5542 0 13.5001 0C8.445 0 3.60727 3.62258 0.414242 7.38079C-0.138081 8.03061 -0.138081 8.97396 0.414242 9.62378C1.21701 10.5686 2.89995 12.3926 5.14769 13.9863C10.8085 18.0001 16.1791 18.009 21.8524 13.9863C24.1002 12.3926 25.7831 10.5686 26.5859 9.62378C27.1366 8.97523 27.1395 8.03274 26.5859 7.38079ZM13.5001 2.8341C16.709 2.8341 19.3195 5.37668 19.3195 8.50229C19.3195 11.6279 16.709 14.1705 13.5001 14.1705C10.2911 14.1705 7.68068 11.6279 7.68068 8.50229C7.68068 5.37668 10.2911 2.8341 13.5001 2.8341Z" fill="#00245C"/>
</svg>
