<svg width="19" height="18" viewBox="0 0 19 18" fill="none" xmlns="http://www.w3.org/2000/svg">
<path d="M4.89587 4.81641H4.66928L4.24583 6.92578H5.31932L4.89587 4.81641ZM13.4609 9.03516C13.6895 9.64684 13.9936 10.142 14.3301 10.5633C14.6666 10.142 15.006 9.6468 15.2346 9.03516H13.4609Z" fill="#00245C"/>
<path d="M16.4831 3.19922H9.90812L11.2791 14.1567C11.3033 14.6049 11.1803 15.0268 10.8867 15.3571L8.56497 18H16.4831C17.3589 18 18.0714 17.2903 18.0714 16.418V4.81641C18.0714 3.94404 17.3589 3.19922 16.4831 3.19922ZM16.4831 9.03516H16.3417C16.0405 9.99784 15.5627 10.7511 15.0663 11.345C15.4552 11.6992 15.8711 11.9897 16.2846 12.3151C16.5126 12.4969 16.5498 12.8285 16.3668 13.0562C16.1846 13.2834 15.8503 13.3203 15.6228 13.138C15.1735 12.7848 14.7518 12.4892 14.3301 12.1037C13.9084 12.4892 13.5219 12.7848 13.0727 13.138C12.8451 13.3203 12.5109 13.2834 12.3287 13.0562C12.1456 12.8285 12.1829 12.4969 12.4109 12.3151C12.8244 11.9897 13.205 11.6992 13.5939 11.345C13.0974 10.7512 12.6549 9.99788 12.3537 9.03516H12.2123C11.9197 9.03516 11.6829 8.79929 11.6829 8.50781C11.6829 8.21633 11.9197 7.98047 12.2123 7.98047H13.8006V7.45312C13.8006 7.16164 14.0374 6.92578 14.3301 6.92578C14.6227 6.92578 14.8595 7.16164 14.8595 7.45312V7.98047H16.4831C16.7758 7.98047 17.0126 8.21633 17.0126 8.50781C17.0126 8.79929 16.7758 9.03516 16.4831 9.03516Z" fill="#00245C"/>
<path d="M8.61795 1.38582C8.5192 0.595828 7.84138 0 7.04207 0H1.58831C0.71248 0 0 0.709664 0 1.58203V13.2539C0 14.1263 0.71248 14.8359 1.58831 14.8359H9.93756C10.092 14.6601 10.2215 14.55 10.2269 14.3204C10.2283 14.2629 8.62512 1.44292 8.61795 1.38582ZM6.49244 10.0795C6.2117 10.1371 5.92732 9.95555 5.86944 9.666L5.53106 7.98047H4.03413L3.69575 9.666C3.63889 9.95129 3.36277 10.1387 3.07274 10.0795C2.78632 10.0224 2.60017 9.74482 2.65756 9.459L3.7164 4.18556C3.76602 3.9394 3.9832 3.76172 4.23549 3.76172H5.32966C5.58195 3.76172 5.79913 3.9394 5.84875 4.18556L6.90763 9.459C6.96502 9.74482 6.7789 10.0224 6.49244 10.0795ZM6.18597 15.8906L6.27682 16.6142C6.33739 17.0987 6.66063 17.5929 7.19232 17.8396L8.96978 15.8906H6.18597Z" fill="#00245C"/>
</svg>
