<svg width="15" height="16" viewBox="0 0 15 16" fill="none" xmlns="http://www.w3.org/2000/svg">
<path d="M7.03131 16C7.99043 16 8.81637 15.4207 9.17877 14.5938H4.88384C5.24624 15.4207 6.07221 16 7.03131 16ZM11.8751 7.74569V6.71875C11.8751 4.53681 10.4247 2.68747 8.43756 2.08344V1.40625C8.43756 0.630844 7.80671 0 7.03131 0C6.2559 0 5.62506 0.630844 5.62506 1.40625V2.08344C3.63787 2.68747 2.18756 4.53678 2.18756 6.71875V7.74569C2.18756 9.66231 1.45699 11.4797 0.130463 12.8631C0.0668585 12.9294 0.0241449 13.0129 0.00763201 13.1033C-0.00888086 13.1937 0.00153529 13.2869 0.0375855 13.3714C0.0736357 13.4559 0.13373 13.528 0.210398 13.5786C0.287066 13.6293 0.376925 13.6563 0.468807 13.6562H13.5938C13.6857 13.6563 13.7755 13.6293 13.8522 13.5786C13.9288 13.528 13.9889 13.4559 14.025 13.3714C14.061 13.2869 14.0714 13.1937 14.0549 13.1033C14.0384 13.0129 13.9957 12.9294 13.9321 12.8631C12.6056 11.4797 11.8751 9.66228 11.8751 7.74569ZM7.50006 1.89775C7.34577 1.88287 7.18943 1.875 7.03131 1.875C6.87318 1.875 6.71684 1.88287 6.56256 1.89775V1.40625C6.56256 1.14778 6.77284 0.9375 7.03131 0.9375C7.28977 0.9375 7.50006 1.14778 7.50006 1.40625V1.89775ZM13.1251 6.71875C13.1251 6.97762 13.3349 7.1875 13.5938 7.1875C13.8527 7.1875 14.0626 6.97762 14.0626 6.71875C14.0626 4.84063 13.3312 3.07491 12.0031 1.74688C11.8201 1.56384 11.5233 1.56381 11.3402 1.74688C11.1572 1.92994 11.1572 2.22672 11.3402 2.40978C12.4912 3.56075 13.1251 5.09103 13.1251 6.71875ZM0.468807 7.1875C0.727682 7.1875 0.937557 6.97762 0.937557 6.71875C0.937557 5.09106 1.57143 3.56078 2.72237 2.40981C2.90543 2.22675 2.90543 1.92997 2.72237 1.74691C2.53934 1.56384 2.24253 1.56384 2.05946 1.74691C0.731431 3.07494 5.64998e-05 4.84063 5.64998e-05 6.71875C5.64998e-05 6.97762 0.209932 7.1875 0.468807 7.1875Z" fill="#00245C"/>
</svg>
