<svg width="46" height="46" viewBox="0 0 46 46" fill="none" xmlns="http://www.w3.org/2000/svg">
<path d="M40.4297 7.63672C40.4297 4.91203 38.213 2.69531 35.4883 2.69531H34.5V6.73828C34.5 7.48255 33.8966 8.08594 33.1523 8.08594C32.4081 8.08594 31.8047 7.48255 31.8047 6.73828V2.69531H25.875V6.73828C25.875 7.48255 25.2716 8.08594 24.5273 8.08594C23.7831 8.08594 23.1797 7.48255 23.1797 6.73828V2.69531H17.25V6.73828C17.25 7.48255 16.6466 8.08594 15.9023 8.08594C15.1581 8.08594 14.5547 7.48255 14.5547 6.73828V2.69531H8.625V6.73828C8.625 7.48255 8.02161 8.08594 7.27734 8.08594C6.53308 8.08594 5.92969 7.48255 5.92969 6.73828V2.69531H4.94141C2.21671 2.69531 0 4.91203 0 7.63672V11.6797H40.4297V7.63672ZM8.625 1.34766C8.625 0.603391 8.02161 0 7.27734 0C6.53308 0 5.92969 0.603391 5.92969 1.34766V2.69531H8.625V1.34766ZM34.5 1.34766C34.5 0.603391 33.8966 0 33.1523 0C32.4081 0 31.8047 0.603391 31.8047 1.34766V2.69531H34.5V1.34766ZM25.875 1.34766C25.875 0.603391 25.2716 0 24.5273 0C23.7831 0 23.1797 0.603391 23.1797 1.34766V2.69531H25.875V1.34766ZM17.25 1.34766C17.25 0.603391 16.6466 0 15.9023 0C15.1581 0 14.5547 0.603391 14.5547 1.34766V2.69531H17.25V1.34766ZM36.1172 23.5391C37.6314 23.5391 39.084 23.8081 40.4297 24.3008V14.375H0V34.5898C0 36.8191 1.81368 38.6328 4.04297 38.6328H23.792C23.6235 37.8049 23.5387 36.9621 23.5391 36.1172C23.5391 29.1816 29.1816 23.5391 36.1172 23.5391ZM31.0859 19.0918H33.332C34.0763 19.0918 34.6797 19.6952 34.6797 20.4395C34.6797 21.1837 34.0763 21.7871 33.332 21.7871H31.0859C30.3417 21.7871 29.7383 21.1837 29.7383 20.4395C29.7383 19.6952 30.3417 19.0918 31.0859 19.0918ZM23.0898 19.0918H25.3359C26.0802 19.0918 26.6836 19.6952 26.6836 20.4395C26.6836 21.1837 26.0802 21.7871 25.3359 21.7871H23.0898C22.3456 21.7871 21.7422 21.1837 21.7422 20.4395C21.7422 19.6952 22.3456 19.0918 23.0898 19.0918ZM9.34375 33.916H7.09766C6.35339 33.916 5.75 33.3126 5.75 32.5684C5.75 31.8241 6.35339 31.2207 7.09766 31.2207H9.34375C10.088 31.2207 10.6914 31.8241 10.6914 32.5684C10.6914 33.3126 10.088 33.916 9.34375 33.916ZM9.34375 27.8516H7.09766C6.35339 27.8516 5.75 27.2482 5.75 26.5039C5.75 25.7596 6.35339 25.1562 7.09766 25.1562H9.34375C10.088 25.1562 10.6914 25.7596 10.6914 26.5039C10.6914 27.2482 10.088 27.8516 9.34375 27.8516ZM17.3398 33.916H15.0938C14.3495 33.916 13.7461 33.3126 13.7461 32.5684C13.7461 31.8241 14.3495 31.2207 15.0938 31.2207H17.3398C18.0841 31.2207 18.6875 31.8241 18.6875 32.5684C18.6875 33.3126 18.0841 33.916 17.3398 33.916ZM17.3398 27.8516H15.0938C14.3495 27.8516 13.7461 27.2482 13.7461 26.5039C13.7461 25.7596 14.3495 25.1562 15.0938 25.1562H17.3398C18.0841 25.1562 18.6875 25.7596 18.6875 26.5039C18.6875 27.2482 18.0841 27.8516 17.3398 27.8516ZM17.3398 21.7871H15.0938C14.3495 21.7871 13.7461 21.1837 13.7461 20.4395C13.7461 19.6952 14.3495 19.0918 15.0938 19.0918H17.3398C18.0841 19.0918 18.6875 19.6952 18.6875 20.4395C18.6875 21.1837 18.0841 21.7871 17.3398 21.7871ZM21.7422 26.5039C21.7422 25.7596 22.3456 25.1562 23.0898 25.1562H25.3359C26.0802 25.1562 26.6836 25.7596 26.6836 26.5039C26.6836 27.2482 26.0802 27.8516 25.3359 27.8516H23.0898C22.3456 27.8516 21.7422 27.2482 21.7422 26.5039Z" fill="#00245C"/>
<path d="M36.1172 26.2344C30.6678 26.2344 26.2344 30.6678 26.2344 36.1172C26.2344 41.5666 30.6678 46 36.1172 46C41.5666 46 46 41.5666 46 36.1172C46 30.6678 41.5666 26.2344 36.1172 26.2344ZM40.6094 37.4648H36.1172C35.3729 37.4648 34.7695 36.8615 34.7695 36.1172V31.625C34.7695 30.8807 35.3729 30.2773 36.1172 30.2773C36.8615 30.2773 37.4648 30.8807 37.4648 31.625V34.7695H40.6094C41.3536 34.7695 41.957 35.3729 41.957 36.1172C41.957 36.8615 41.3536 37.4648 40.6094 37.4648Z" fill="#00245C"/>
</svg>
