<svg width="17" height="18" viewBox="0 0 17 18" fill="none" xmlns="http://www.w3.org/2000/svg">
<path d="M16.7416 16.2217L12.5508 11.8132C13.6287 10.5197 14.2195 8.88226 14.2187 7.19059C14.2187 3.22576 11.0294 0 7.10935 0C3.18931 0 0 3.22576 0 7.19059C0 11.1554 3.18931 14.3812 7.10935 14.3812C8.58098 14.3812 9.98338 13.9322 11.1824 13.08L15.405 17.5219C15.5815 17.7073 15.8189 17.8095 16.0733 17.8095C16.3141 17.8095 16.5425 17.7167 16.7159 17.5478C16.8929 17.3753 16.995 17.1387 16.9998 16.8901C17.0046 16.6415 16.9118 16.4011 16.7416 16.2217ZM7.10935 1.87581C10.0069 1.87581 12.3641 4.25995 12.3641 7.19059C12.3641 10.1212 10.0069 12.5054 7.10935 12.5054C4.21182 12.5054 1.85461 10.1212 1.85461 7.19059C1.85461 4.25995 4.21182 1.87581 7.10935 1.87581Z" fill="#00245C"/>
</svg>
