<svg width="19" height="18" viewBox="0 0 19 18" fill="none" xmlns="http://www.w3.org/2000/svg">
<path d="M17.8293 10.9725L16.1168 9.67876C16.1385 9.47925 16.1571 9.24602 16.1571 8.99926C16.1571 8.7525 16.1393 8.51927 16.1168 8.31976L17.8309 7.02527C18.1492 6.78227 18.2362 6.35101 18.0335 5.99179L16.2526 3.015C16.0624 2.67901 15.6455 2.5065 15.2225 2.65725L13.2017 3.44099C12.8143 3.17099 12.4083 2.943 11.9883 2.76075L11.6809 0.690012C11.6304 0.297 11.2764 0 10.858 0H7.28688C6.86843 0 6.51522 0.297 6.46552 0.684L6.15733 2.76226C5.75052 2.93927 5.35074 3.16427 4.94626 3.4425L2.92005 2.65651C2.54039 2.51476 2.08624 2.67374 1.8976 3.00825L0.114401 5.98876C-0.0959708 6.33227 -0.00903453 6.77851 0.316258 7.02752L2.02882 8.32127C2.00164 8.57401 1.98846 8.79377 1.98846 9.00004C1.98846 9.2063 2.00167 9.42602 2.02882 9.67954L0.314693 10.974C-0.00361238 11.2178 -0.0897844 11.649 0.112836 12.0075L1.89374 14.9843C2.08395 15.3195 2.49694 15.4935 2.92391 15.342L4.94469 14.5583C5.3313 14.8275 5.73731 15.0555 6.15733 15.2385L6.46475 17.3085C6.51519 17.703 6.86843 18 7.28764 18H10.8587C11.2772 18 11.6312 17.703 11.6809 17.316L11.989 15.2385C12.3958 15.0608 12.7949 14.8365 13.2001 14.5575L15.2263 15.3435C15.3233 15.3802 15.4265 15.399 15.5306 15.399C15.8319 15.399 16.109 15.24 16.2487 14.9925L18.0374 12C18.2362 11.649 18.1492 11.2178 17.8293 10.9725ZM9.0724 12C7.35984 12 5.96711 10.6545 5.96711 9C5.96711 7.34551 7.35984 6.00001 9.0724 6.00001C10.785 6.00001 12.1777 7.34551 12.1777 9C12.1777 10.6545 10.785 12 9.0724 12Z" fill="#00245C"/>
</svg>
