<svg width="17" height="18" viewBox="0 0 17 18" fill="none" xmlns="http://www.w3.org/2000/svg">
<path d="M16.0373 2.99995C16.0373 4.34619 14.9452 5.43755 13.598 5.43755C12.2507 5.43755 11.1586 4.34619 11.1586 2.99995C11.1586 1.65386 12.2507 0.5625 13.598 0.5625C14.9452 0.5625 16.0373 1.65386 16.0373 2.99995Z" fill="#00245C"/>
<path d="M13.598 6.00005C11.9421 6.00005 10.5957 4.65451 10.5957 2.99995C10.5957 1.34554 11.9422 0 13.598 0C15.2537 0 16.6002 1.34554 16.6002 2.99995C16.6002 4.65451 15.2537 6.00005 13.598 6.00005ZM13.598 1.125C12.5629 1.125 11.7216 1.96657 11.7216 2.99995C11.7216 4.03348 12.5629 4.87505 13.598 4.87505C14.633 4.87505 15.4743 4.03348 15.4743 2.99995C15.4743 1.96657 14.633 1.125 13.598 1.125ZM16.0373 15C16.0373 16.3461 14.9452 17.4375 13.598 17.4375C12.2507 17.4375 11.1586 16.3461 11.1586 15C11.1586 13.6538 12.2507 12.5625 13.598 12.5625C14.9452 12.5625 16.0373 13.6538 16.0373 15Z" fill="#00245C"/>
<path d="M13.598 18C11.9421 18 10.5957 16.6545 10.5957 15C10.5957 13.3455 11.9422 12 13.598 12C15.2537 12 16.6002 13.3455 16.6002 15C16.6002 16.6545 15.2537 18 13.598 18ZM13.598 13.125C12.5629 13.125 11.7216 13.9665 11.7216 15C11.7216 16.0335 12.5629 16.875 13.598 16.875C14.633 16.875 15.4743 16.0334 15.4743 15C15.4743 13.9665 14.633 13.125 13.598 13.125ZM5.52935 9C5.52935 10.3462 4.43716 11.4375 3.08989 11.4375C1.74277 11.4375 0.650576 10.3462 0.650576 9C0.650576 7.65376 1.74277 6.56255 3.08989 6.56255C4.43716 6.56255 5.52935 7.65376 5.52935 9Z" fill="#00245C"/>
<path d="M3.08989 12C1.43421 12 0.0876465 10.6545 0.0876465 9C0.0876465 7.34548 1.43421 6.00005 3.08989 6.00005C4.74571 6.00005 6.09228 7.34548 6.09228 9C6.09228 10.6545 4.74571 12 3.08989 12ZM3.08989 7.12505C2.05487 7.12505 1.21351 7.96648 1.21351 9C1.21351 10.0335 2.05487 10.875 3.08989 10.875C4.12505 10.875 4.96642 10.0335 4.96642 9C4.96642 7.96648 4.12505 7.12505 3.08989 7.12505Z" fill="#00245C"/>
<path d="M4.8621 8.64007C4.60083 8.64007 4.34712 8.50423 4.20903 8.2613C4.00409 7.90207 4.13026 7.44377 4.48979 7.23821L11.4543 3.27076C11.8138 3.0645 12.2724 3.19057 12.4781 3.5512C12.6831 3.91043 12.5569 4.36873 12.1974 4.57429L5.23275 8.54174C5.11989 8.60624 4.99212 8.64014 4.8621 8.64007ZM11.8259 14.8276C11.6997 14.8276 11.5722 14.796 11.4551 14.7292L4.49053 10.7618C4.13096 10.557 4.00497 10.0987 4.20988 9.7387C4.41394 9.37874 4.87329 9.252 5.23363 9.45826L12.1982 13.4257C12.5578 13.6305 12.6838 14.0888 12.4789 14.4488C12.3401 14.6917 12.0864 14.8276 11.8259 14.8276H11.8259Z" fill="#00245C"/>
</svg>
