<svg width="51" height="31" viewBox="0 0 51 31" fill="none" xmlns="http://www.w3.org/2000/svg">
<path fill-rule="evenodd" clip-rule="evenodd" d="M35.5 1.25H15.5C7.62994 1.25 1.25 7.62994 1.25 15.5C1.25 23.3701 7.62994 29.75 15.5 29.75H35.5C43.3701 29.75 49.75 23.3701 49.75 15.5C49.75 7.62994 43.3701 1.25 35.5 1.25ZM15.5 0C6.93959 0 0 6.93959 0 15.5C0 24.0604 6.93959 31 15.5 31H35.5C44.0604 31 51 24.0604 51 15.5C51 6.93959 44.0604 0 35.5 0H15.5Z" fill="white"/>
<path d="M15.172 20.098C14.528 20.098 13.9493 19.986 13.436 19.762C12.932 19.5287 12.5353 19.2113 12.246 18.81C11.9567 18.3993 11.8073 17.928 11.798 17.396H13.156C13.2027 17.8533 13.3893 18.2407 13.716 18.558C14.052 18.866 14.5373 19.02 15.172 19.02C15.7787 19.02 16.2547 18.8707 16.6 18.572C16.9547 18.264 17.132 17.872 17.132 17.396C17.132 17.0227 17.0293 16.7193 16.824 16.486C16.6187 16.2527 16.362 16.0753 16.054 15.954C15.746 15.8327 15.3307 15.702 14.808 15.562C14.164 15.394 13.646 15.226 13.254 15.058C12.8713 14.89 12.54 14.6287 12.26 14.274C11.9893 13.91 11.854 13.4247 11.854 12.818C11.854 12.286 11.9893 11.8147 12.26 11.404C12.5307 10.9933 12.9087 10.676 13.394 10.452C13.8887 10.228 14.4533 10.116 15.088 10.116C16.0027 10.116 16.7493 10.3447 17.328 10.802C17.916 11.2593 18.2473 11.866 18.322 12.622H16.922C16.8753 12.2487 16.6793 11.922 16.334 11.642C15.9887 11.3527 15.5313 11.208 14.962 11.208C14.43 11.208 13.996 11.348 13.66 11.628C13.324 11.8987 13.156 12.2813 13.156 12.776C13.156 13.1307 13.254 13.42 13.45 13.644C13.6553 13.868 13.9027 14.0407 14.192 14.162C14.4907 14.274 14.906 14.4047 15.438 14.554C16.082 14.7313 16.6 14.9087 16.992 15.086C17.384 15.254 17.72 15.52 18 15.884C18.28 16.2387 18.42 16.724 18.42 17.34C18.42 17.816 18.294 18.264 18.042 18.684C17.79 19.104 17.4167 19.4447 16.922 19.706C16.4273 19.9673 15.844 20.098 15.172 20.098ZM24.5788 20L21.5688 16.612V20H20.2948V9.64H21.5688V15.73L24.5228 12.328H26.3008L22.6888 16.15L26.3148 20H24.5788ZM28.1579 11.082C27.9152 11.082 27.7099 10.998 27.5419 10.83C27.3739 10.662 27.2899 10.4567 27.2899 10.214C27.2899 9.97133 27.3739 9.766 27.5419 9.598C27.7099 9.43 27.9152 9.346 28.1579 9.346C28.3912 9.346 28.5872 9.43 28.7459 9.598C28.9139 9.766 28.9979 9.97133 28.9979 10.214C28.9979 10.4567 28.9139 10.662 28.7459 10.83C28.5872 10.998 28.3912 11.082 28.1579 11.082ZM28.7739 12.328V20H27.4999V12.328H28.7739ZM32.2192 13.742C32.4712 13.3033 32.8445 12.9393 33.3392 12.65C33.8432 12.3513 34.4265 12.202 35.0892 12.202C35.7705 12.202 36.3865 12.3653 36.9372 12.692C37.4972 13.0187 37.9359 13.4807 38.2532 14.078C38.5705 14.666 38.7292 15.352 38.7292 16.136C38.7292 16.9107 38.5705 17.6013 38.2532 18.208C37.9359 18.8147 37.4972 19.286 36.9372 19.622C36.3865 19.958 35.7705 20.126 35.0892 20.126C34.4359 20.126 33.8572 19.9813 33.3532 19.692C32.8585 19.3933 32.4805 19.0247 32.2192 18.586V23.64H30.9452V12.328H32.2192V13.742ZM37.4272 16.136C37.4272 15.5573 37.3105 15.0533 37.0772 14.624C36.8439 14.1947 36.5265 13.868 36.1252 13.644C35.7332 13.42 35.2992 13.308 34.8232 13.308C34.3565 13.308 33.9225 13.4247 33.5212 13.658C33.1292 13.882 32.8119 14.2133 32.5692 14.652C32.3359 15.0813 32.2192 15.5807 32.2192 16.15C32.2192 16.7287 32.3359 17.2373 32.5692 17.676C32.8119 18.1053 33.1292 18.4367 33.5212 18.67C33.9225 18.894 34.3565 19.006 34.8232 19.006C35.2992 19.006 35.7332 18.894 36.1252 18.67C36.5265 18.4367 36.8439 18.1053 37.0772 17.676C37.3105 17.2373 37.4272 16.724 37.4272 16.136Z" fill="white"/>
</svg>
