<svg width="42" height="42" viewBox="0 0 42 42" fill="none" xmlns="http://www.w3.org/2000/svg">
<path d="M21.84 0H20.16V1.68H21.84V0Z" fill="#00245C"/>
<path d="M23.52 0H21.84V1.68H23.52V0Z" fill="#00245C"/>
<path d="M28.56 0H26.88V1.68H28.56V0Z" fill="#00245C"/>
<path d="M16.8 1.68H15.12V3.36H16.8V1.68Z" fill="#00245C"/>
<path d="M18.48 1.68H16.8V3.36H18.48V1.68Z" fill="#00245C"/>
<path d="M20.16 1.68L18.48 1.68V3.36H20.16V1.68Z" fill="#00245C"/>
<path d="M25.2 1.68L23.52 1.68V3.36H25.2V1.68Z" fill="#00245C"/>
<path d="M26.88 1.68L25.2 1.68V3.36H26.88V1.68Z" fill="#00245C"/>
<path d="M15.12 3.36H13.44V5.04H15.12L15.12 3.36Z" fill="#00245C"/>
<path d="M18.48 3.36H16.8V5.04H18.48V3.36Z" fill="#00245C"/>
<path d="M20.16 3.36H18.48V5.04H20.16V3.36Z" fill="#00245C"/>
<path d="M21.84 3.36H20.16V5.04H21.84V3.36Z" fill="#00245C"/>
<path d="M26.88 3.36H25.2V5.04H26.88V3.36Z" fill="#00245C"/>
<path d="M15.12 5.04H13.44V6.72H15.12V5.04Z" fill="#00245C"/>
<path d="M16.8 5.04H15.12V6.72H16.8V5.04Z" fill="#00245C"/>
<path d="M20.16 5.04H18.48V6.72H20.16V5.04Z" fill="#00245C"/>
<path d="M23.52 5.04H21.84L21.84 6.72H23.52V5.04Z" fill="#00245C"/>
<path d="M25.2 5.04H23.52V6.72H25.2V5.04Z" fill="#00245C"/>
<path d="M26.88 5.04H25.2V6.72H26.88V5.04Z" fill="#00245C"/>
<path d="M28.56 5.04H26.88V6.72H28.56V5.04Z" fill="#00245C"/>
<path d="M15.12 6.72H13.44V8.4H15.12V6.72Z" fill="#00245C"/>
<path d="M20.16 6.72H18.48V8.4H20.16V6.72Z" fill="#00245C"/>
<path d="M21.84 6.72H20.16V8.4H21.84L21.84 6.72Z" fill="#00245C"/>
<path d="M28.56 6.72H26.88V8.4H28.56V6.72Z" fill="#00245C"/>
<path d="M15.12 8.4H13.44V10.08H15.12V8.4Z" fill="#00245C"/>
<path d="M20.16 8.4H18.48V10.08H20.16V8.4Z" fill="#00245C"/>
<path d="M21.84 8.4H20.16V10.08H21.84V8.4Z" fill="#00245C"/>
<path d="M25.2 8.4H23.52V10.08H25.2V8.4Z" fill="#00245C"/>
<path d="M26.88 8.4L25.2 8.4V10.08H26.88V8.4Z" fill="#00245C"/>
<path d="M28.56 8.4H26.88V10.08H28.56V8.4Z" fill="#00245C"/>
<path d="M15.12 10.08H13.44V11.76H15.12V10.08Z" fill="#00245C"/>
<path d="M18.48 10.08H16.8V11.76H18.48V10.08Z" fill="#00245C"/>
<path d="M21.84 10.08H20.16V11.76H21.84V10.08Z" fill="#00245C"/>
<path d="M25.2 10.08H23.52V11.76H25.2V10.08Z" fill="#00245C"/>
<path d="M28.56 10.08H26.88V11.76H28.56V10.08Z" fill="#00245C"/>
<path d="M15.12 11.76H13.44V13.44H15.12V11.76Z" fill="#00245C"/>
<path d="M20.16 11.76H18.48V13.44H20.16V11.76Z" fill="#00245C"/>
<path d="M25.2 11.76H23.52V13.44H25.2V11.76Z" fill="#00245C"/>
<path d="M26.88 11.76H25.2V13.44H26.88V11.76Z" fill="#00245C"/>
<path d="M28.56 11.76H26.88V13.44H28.56V11.76Z" fill="#00245C"/>
<path d="M1.68 13.44H0V15.12H1.68V13.44Z" fill="#00245C"/>
<path d="M5.04 13.44H3.36V15.12H5.04V13.44Z" fill="#00245C"/>
<path d="M6.72 13.44H5.04V15.12H6.72V13.44Z" fill="#00245C"/>
<path d="M8.4 13.44H6.72V15.12H8.4V13.44Z" fill="#00245C"/>
<path d="M10.08 13.44H8.4V15.12H10.08V13.44Z" fill="#00245C"/>
<path d="M11.76 13.44H10.08V15.12H11.76V13.44Z" fill="#00245C"/>
<path d="M18.48 13.44H16.8V15.12H18.48V13.44Z" fill="#00245C"/>
<path d="M21.84 13.44H20.16V15.12H21.84V13.44Z" fill="#00245C"/>
<path d="M23.52 13.44H21.84V15.12H23.52V13.44Z" fill="#00245C"/>
<path d="M31.92 13.44H30.24V15.12H31.92V13.44Z" fill="#00245C"/>
<path d="M33.6 13.44H31.92V15.12H33.6V13.44Z" fill="#00245C"/>
<path d="M35.28 13.44H33.6V15.12H35.28V13.44Z" fill="#00245C"/>
<path d="M36.96 13.44H35.28V15.12H36.96V13.44Z" fill="#00245C"/>
<path d="M38.64 13.44H36.96V15.12H38.64V13.44Z" fill="#00245C"/>
<path d="M1.68 15.12H0V16.8H1.68V15.12Z" fill="#00245C"/>
<path d="M3.36 15.12H1.68V16.8H3.36V15.12Z" fill="#00245C"/>
<path d="M5.04 15.12H3.36V16.8H5.04V15.12Z" fill="#00245C"/>
<path d="M13.44 15.12L11.76 15.12L11.76 16.8H13.44V15.12Z" fill="#00245C"/>
<path d="M15.12 15.12H13.44V16.8H15.12V15.12Z" fill="#00245C"/>
<path d="M16.8 15.12L15.12 15.12V16.8H16.8V15.12Z" fill="#00245C"/>
<path d="M18.48 15.12H16.8V16.8H18.48V15.12Z" fill="#00245C"/>
<path d="M20.16 15.12H18.48V16.8H20.16V15.12Z" fill="#00245C"/>
<path d="M23.52 15.12H21.84L21.84 16.8H23.52V15.12Z" fill="#00245C"/>
<path d="M28.56 15.12H26.88V16.8H28.56V15.12Z" fill="#00245C"/>
<path d="M30.24 15.12L28.56 15.12V16.8H30.24L30.24 15.12Z" fill="#00245C"/>
<path d="M33.6 15.12H31.92V16.8H33.6V15.12Z" fill="#00245C"/>
<path d="M40.32 15.12L38.64 15.12V16.8H40.32V15.12Z" fill="#00245C"/>
<path d="M1.68 16.8H0V18.48H1.68V16.8Z" fill="#00245C"/>
<path d="M5.04 16.8H3.36V18.48H5.04V16.8Z" fill="#00245C"/>
<path d="M6.72 16.8H5.04V18.48H6.72V16.8Z" fill="#00245C"/>
<path d="M11.76 16.8H10.08V18.48H11.76L11.76 16.8Z" fill="#00245C"/>
<path d="M15.12 16.8H13.44V18.48H15.12V16.8Z" fill="#00245C"/>
<path d="M16.8 16.8H15.12V18.48H16.8V16.8Z" fill="#00245C"/>
<path d="M20.16 16.8H18.48V18.48H20.16V16.8Z" fill="#00245C"/>
<path d="M21.84 16.8H20.16V18.48H21.84L21.84 16.8Z" fill="#00245C"/>
<path d="M23.52 16.8H21.84L21.84 18.48H23.52V16.8Z" fill="#00245C"/>
<path d="M25.2 16.8H23.52V18.48H25.2V16.8Z" fill="#00245C"/>
<path d="M26.88 16.8H25.2V18.48H26.88V16.8Z" fill="#00245C"/>
<path d="M28.56 16.8H26.88V18.48H28.56V16.8Z" fill="#00245C"/>
<path d="M30.24 16.8H28.56V18.48H30.24V16.8Z" fill="#00245C"/>
<path d="M31.92 16.8H30.24V18.48H31.92V16.8Z" fill="#00245C"/>
<path d="M33.6 16.8H31.92V18.48H33.6V16.8Z" fill="#00245C"/>
<path d="M35.28 16.8H33.6V18.48H35.28V16.8Z" fill="#00245C"/>
<path d="M36.96 16.8H35.28V18.48H36.96V16.8Z" fill="#00245C"/>
<path d="M40.32 16.8H38.64V18.48H40.32V16.8Z" fill="#00245C"/>
<path d="M42 16.8H40.32V18.48H42V16.8Z" fill="#00245C"/>
<path d="M1.68 18.48H0V20.16H1.68V18.48Z" fill="#00245C"/>
<path d="M3.36 18.48H1.68V20.16H3.36V18.48Z" fill="#00245C"/>
<path d="M6.72 18.48H5.04V20.16H6.72V18.48Z" fill="#00245C"/>
<path d="M8.4 18.48H6.72V20.16H8.4V18.48Z" fill="#00245C"/>
<path d="M15.12 18.48H13.44V20.16H15.12V18.48Z" fill="#00245C"/>
<path d="M20.16 18.48H18.48V20.16H20.16V18.48Z" fill="#00245C"/>
<path d="M26.88 18.48H25.2V20.16H26.88V18.48Z" fill="#00245C"/>
<path d="M30.24 18.48H28.56V20.16H30.24V18.48Z" fill="#00245C"/>
<path d="M33.6 18.48H31.92V20.16H33.6V18.48Z" fill="#00245C"/>
<path d="M42 18.48H40.32V20.16H42V18.48Z" fill="#00245C"/>
<path d="M5.04 20.16H3.36V21.84H5.04V20.16Z" fill="#00245C"/>
<path d="M11.76 20.16H10.08V21.84H11.76V20.16Z" fill="#00245C"/>
<path d="M18.48 20.16H16.8V21.84H18.48V20.16Z" fill="#00245C"/>
<path d="M21.84 20.16H20.16V21.84H21.84V20.16Z" fill="#00245C"/>
<path d="M23.52 20.16H21.84V21.84H23.52V20.16Z" fill="#00245C"/>
<path d="M25.2 20.16H23.52V21.84H25.2V20.16Z" fill="#00245C"/>
<path d="M26.88 20.16H25.2V21.84H26.88V20.16Z" fill="#00245C"/>
<path d="M30.24 20.16H28.56V21.84H30.24V20.16Z" fill="#00245C"/>
<path d="M31.92 20.16H30.24V21.84H31.92V20.16Z" fill="#00245C"/>
<path d="M33.6 20.16H31.92V21.84H33.6V20.16Z" fill="#00245C"/>
<path d="M35.28 20.16H33.6V21.84H35.28V20.16Z" fill="#00245C"/>
<path d="M38.64 20.16H36.96V21.84H38.64V20.16Z" fill="#00245C"/>
<path d="M40.32 20.16H38.64V21.84H40.32V20.16Z" fill="#00245C"/>
<path d="M42 20.16H40.32V21.84H42V20.16Z" fill="#00245C"/>
<path d="M1.68 21.84H0V23.52H1.68V21.84Z" fill="#00245C"/>
<path d="M3.36 21.84L1.68 21.84V23.52H3.36V21.84Z" fill="#00245C"/>
<path d="M10.08 21.84L8.4 21.84V23.52H10.08V21.84Z" fill="#00245C"/>
<path d="M18.48 21.84H16.8V23.52H18.48V21.84Z" fill="#00245C"/>
<path d="M28.56 21.84H26.88V23.52H28.56V21.84Z" fill="#00245C"/>
<path d="M30.24 21.84H28.56V23.52H30.24V21.84Z" fill="#00245C"/>
<path d="M33.6 21.84H31.92V23.52H33.6V21.84Z" fill="#00245C"/>
<path d="M36.96 21.84H35.28V23.52H36.96V21.84Z" fill="#00245C"/>
<path d="M40.32 21.84H38.64V23.52H40.32V21.84Z" fill="#00245C"/>
<path d="M1.68 23.52H0V25.2H1.68V23.52Z" fill="#00245C"/>
<path d="M6.72 23.52H5.04V25.2H6.72V23.52Z" fill="#00245C"/>
<path d="M10.08 23.52H8.4V25.2H10.08V23.52Z" fill="#00245C"/>
<path d="M11.76 23.52H10.08V25.2H11.76V23.52Z" fill="#00245C"/>
<path d="M18.48 23.52H16.8V25.2H18.48V23.52Z" fill="#00245C"/>
<path d="M20.16 23.52H18.48V25.2H20.16V23.52Z" fill="#00245C"/>
<path d="M21.84 23.52H20.16V25.2H21.84V23.52Z" fill="#00245C"/>
<path d="M23.52 23.52H21.84V25.2H23.52V23.52Z" fill="#00245C"/>
<path d="M26.88 23.52H25.2V25.2H26.88V23.52Z" fill="#00245C"/>
<path d="M30.24 23.52H28.56V25.2H30.24V23.52Z" fill="#00245C"/>
<path d="M31.92 23.52H30.24V25.2H31.92V23.52Z" fill="#00245C"/>
<path d="M33.6 23.52H31.92V25.2H33.6V23.52Z" fill="#00245C"/>
<path d="M35.28 23.52H33.6V25.2H35.28V23.52Z" fill="#00245C"/>
<path d="M36.96 23.52H35.28V25.2H36.96V23.52Z" fill="#00245C"/>
<path d="M40.32 23.52H38.64V25.2H40.32V23.52Z" fill="#00245C"/>
<path d="M42 23.52H40.32V25.2H42V23.52Z" fill="#00245C"/>
<path d="M1.68 25.2H0V26.88H1.68V25.2Z" fill="#00245C"/>
<path d="M6.72 25.2H5.04V26.88H6.72V25.2Z" fill="#00245C"/>
<path d="M8.4 25.2H6.72V26.88H8.4L8.4 25.2Z" fill="#00245C"/>
<path d="M16.8 25.2H15.12V26.88H16.8V25.2Z" fill="#00245C"/>
<path d="M20.16 25.2H18.48V26.88H20.16V25.2Z" fill="#00245C"/>
<path d="M25.2 25.2H23.52V26.88H25.2V25.2Z" fill="#00245C"/>
<path d="M26.88 25.2H25.2V26.88H26.88V25.2Z" fill="#00245C"/>
<path d="M30.24 25.2H28.56V26.88H30.24V25.2Z" fill="#00245C"/>
<path d="M33.6 25.2H31.92V26.88H33.6V25.2Z" fill="#00245C"/>
<path d="M35.28 25.2H33.6V26.88H35.28V25.2Z" fill="#00245C"/>
<path d="M42 25.2H40.32V26.88H42V25.2Z" fill="#00245C"/>
<path d="M1.68 26.88H0V28.56H1.68V26.88Z" fill="#00245C"/>
<path d="M10.08 26.88H8.4L8.4 28.56H10.08V26.88Z" fill="#00245C"/>
<path d="M11.76 26.88H10.08V28.56H11.76V26.88Z" fill="#00245C"/>
<path d="M13.44 26.88H11.76V28.56H13.44V26.88Z" fill="#00245C"/>
<path d="M15.12 26.88H13.44V28.56H15.12L15.12 26.88Z" fill="#00245C"/>
<path d="M18.48 26.88H16.8V28.56H18.48V26.88Z" fill="#00245C"/>
<path d="M20.16 26.88H18.48V28.56H20.16V26.88Z" fill="#00245C"/>
<path d="M23.52 26.88H21.84V28.56H23.52V26.88Z" fill="#00245C"/>
<path d="M25.2 26.88H23.52V28.56H25.2V26.88Z" fill="#00245C"/>
<path d="M28.56 26.88H26.88V28.56H28.56V26.88Z" fill="#00245C"/>
<path d="M30.24 26.88H28.56V28.56H30.24V26.88Z" fill="#00245C"/>
<path d="M31.92 26.88H30.24V28.56H31.92V26.88Z" fill="#00245C"/>
<path d="M33.6 26.88H31.92V28.56H33.6V26.88Z" fill="#00245C"/>
<path d="M35.28 26.88H33.6V28.56H35.28V26.88Z" fill="#00245C"/>
<path d="M38.64 26.88H36.96V28.56H38.64V26.88Z" fill="#00245C"/>
<path d="M15.12 28.56H13.44V30.24H15.12V28.56Z" fill="#00245C"/>
<path d="M21.84 28.56H20.16V30.24H21.84L21.84 28.56Z" fill="#00245C"/>
<path d="M23.52 28.56H21.84L21.84 30.24H23.52V28.56Z" fill="#00245C"/>
<path d="M28.56 28.56H26.88V30.24H28.56V28.56Z" fill="#00245C"/>
<path d="M35.28 28.56H33.6V30.24H35.28V28.56Z" fill="#00245C"/>
<path d="M36.96 28.56H35.28V30.24H36.96V28.56Z" fill="#00245C"/>
<path d="M18.48 30.24H16.8V31.92H18.48V30.24Z" fill="#00245C"/>
<path d="M23.52 30.24H21.84L21.84 31.92H23.52V30.24Z" fill="#00245C"/>
<path d="M25.2 30.24L23.52 30.24V31.92H25.2V30.24Z" fill="#00245C"/>
<path d="M28.56 30.24H26.88V31.92H28.56V30.24Z" fill="#00245C"/>
<path d="M31.92 30.24H30.24V31.92H31.92V30.24Z" fill="#00245C"/>
<path d="M35.28 30.24H33.6V31.92H35.28V30.24Z" fill="#00245C"/>
<path d="M38.64 30.24L36.96 30.24V31.92H38.64V30.24Z" fill="#00245C"/>
<path d="M40.32 30.24H38.64V31.92H40.32V30.24Z" fill="#00245C"/>
<path d="M42 30.24H40.32V31.92H42V30.24Z" fill="#00245C"/>
<path d="M15.12 31.92H13.44V33.6H15.12V31.92Z" fill="#00245C"/>
<path d="M18.48 31.92H16.8V33.6H18.48V31.92Z" fill="#00245C"/>
<path d="M21.84 31.92H20.16V33.6H21.84L21.84 31.92Z" fill="#00245C"/>
<path d="M25.2 31.92H23.52V33.6H25.2V31.92Z" fill="#00245C"/>
<path d="M28.56 31.92H26.88V33.6H28.56V31.92Z" fill="#00245C"/>
<path d="M35.28 31.92H33.6V33.6H35.28V31.92Z" fill="#00245C"/>
<path d="M36.96 31.92H35.28V33.6H36.96V31.92Z" fill="#00245C"/>
<path d="M40.32 31.92H38.64V33.6H40.32V31.92Z" fill="#00245C"/>
<path d="M15.12 33.6H13.44V35.28H15.12V33.6Z" fill="#00245C"/>
<path d="M21.84 33.6H20.16V35.28H21.84V33.6Z" fill="#00245C"/>
<path d="M23.52 33.6H21.84V35.28H23.52V33.6Z" fill="#00245C"/>
<path d="M25.2 33.6H23.52V35.28H25.2V33.6Z" fill="#00245C"/>
<path d="M26.88 33.6H25.2V35.28H26.88V33.6Z" fill="#00245C"/>
<path d="M28.56 33.6H26.88V35.28H28.56V33.6Z" fill="#00245C"/>
<path d="M30.24 33.6H28.56V35.28H30.24V33.6Z" fill="#00245C"/>
<path d="M31.92 33.6H30.24V35.28H31.92V33.6Z" fill="#00245C"/>
<path d="M33.6 33.6H31.92V35.28H33.6V33.6Z" fill="#00245C"/>
<path d="M35.28 33.6H33.6V35.28H35.28V33.6Z" fill="#00245C"/>
<path d="M38.64 33.6H36.96V35.28H38.64V33.6Z" fill="#00245C"/>
<path d="M40.32 33.6H38.64V35.28H40.32V33.6Z" fill="#00245C"/>
<path d="M42 33.6H40.32V35.28H42V33.6Z" fill="#00245C"/>
<path d="M15.12 35.28H13.44V36.96H15.12V35.28Z" fill="#00245C"/>
<path d="M16.8 35.28H15.12V36.96H16.8V35.28Z" fill="#00245C"/>
<path d="M18.48 35.28H16.8V36.96H18.48V35.28Z" fill="#00245C"/>
<path d="M23.52 35.28H21.84L21.84 36.96H23.52V35.28Z" fill="#00245C"/>
<path d="M31.92 35.28H30.24L30.24 36.96H31.92V35.28Z" fill="#00245C"/>
<path d="M35.28 35.28H33.6V36.96H35.28V35.28Z" fill="#00245C"/>
<path d="M36.96 35.28H35.28V36.96H36.96V35.28Z" fill="#00245C"/>
<path d="M38.64 35.28H36.96V36.96H38.64V35.28Z" fill="#00245C"/>
<path d="M40.32 35.28H38.64V36.96H40.32V35.28Z" fill="#00245C"/>
<path d="M42 35.28H40.32V36.96H42V35.28Z" fill="#00245C"/>
<path d="M15.12 36.96H13.44V38.64H15.12V36.96Z" fill="#00245C"/>
<path d="M16.8 36.96H15.12V38.64H16.8V36.96Z" fill="#00245C"/>
<path d="M20.16 36.96H18.48V38.64H20.16V36.96Z" fill="#00245C"/>
<path d="M21.84 36.96H20.16V38.64H21.84L21.84 36.96Z" fill="#00245C"/>
<path d="M25.2 36.96H23.52V38.64H25.2V36.96Z" fill="#00245C"/>
<path d="M36.96 36.96H35.28V38.64H36.96V36.96Z" fill="#00245C"/>
<path d="M38.64 36.96H36.96V38.64H38.64V36.96Z" fill="#00245C"/>
<path d="M42 36.96H40.32V38.64H42V36.96Z" fill="#00245C"/>
<path d="M16.8 38.64H15.12L15.12 40.32H16.8V38.64Z" fill="#00245C"/>
<path d="M20.16 38.64H18.48V40.32H20.16V38.64Z" fill="#00245C"/>
<path d="M25.2 38.64H23.52V40.32H25.2V38.64Z" fill="#00245C"/>
<path d="M26.88 38.64H25.2V40.32H26.88V38.64Z" fill="#00245C"/>
<path d="M28.56 38.64H26.88V40.32H28.56V38.64Z" fill="#00245C"/>
<path d="M30.24 38.64H28.56V40.32H30.24V38.64Z" fill="#00245C"/>
<path d="M33.6 38.64H31.92V40.32H33.6V38.64Z" fill="#00245C"/>
<path d="M35.28 38.64H33.6V40.32H35.28V38.64Z" fill="#00245C"/>
<path d="M36.96 38.64H35.28V40.32H36.96V38.64Z" fill="#00245C"/>
<path d="M42 38.64H40.32V40.32H42V38.64Z" fill="#00245C"/>
<path d="M15.12 40.32H13.44V42H15.12L15.12 40.32Z" fill="#00245C"/>
<path d="M16.8 40.32H15.12L15.12 42H16.8V40.32Z" fill="#00245C"/>
<path d="M20.16 40.32H18.48V42H20.16V40.32Z" fill="#00245C"/>
<path d="M21.84 40.32H20.16V42H21.84V40.32Z" fill="#00245C"/>
<path d="M33.6 40.32H31.92V42H33.6V40.32Z" fill="#00245C"/>
<path d="M35.28 40.32H33.6V42H35.28V40.32Z" fill="#00245C"/>
<path d="M36.96 40.32H35.28V42H36.96V40.32Z" fill="#00245C"/>
<path d="M38.64 40.32H36.96V42H38.64V40.32Z" fill="#00245C"/>
<path d="M40.32 40.32H38.64V42H40.32V40.32Z" fill="#00245C"/>
<path d="M42 40.32H40.32V42H42V40.32Z" fill="#00245C"/>
<path d="M9.996 1.764H1.764V9.996H9.996V1.764Z" fill="white"/>
<path d="M8.25153e-08 8.25153e-08V11.76H11.76V8.25153e-08H8.25153e-08ZM9.996 9.996H1.764V1.764H9.996V9.996Z" fill="#00245C"/>
<path d="M40.236 1.764H32.004V9.996H40.236V1.764Z" fill="white"/>
<path d="M30.24 0V11.76H42V0H30.24ZM40.236 9.996H32.004V1.764H40.236V9.996Z" fill="#00245C"/>
<path d="M9.996 32.004H1.764V40.236H9.996V32.004Z" fill="white"/>
<path d="M0 30.24V42H11.76V30.24H0ZM9.996 40.236H1.764V32.004H9.996V40.236Z" fill="#00245C"/>
<path d="M8.4 3.36H3.36V8.4H8.4V3.36Z" fill="#00245C"/>
<path d="M38.64 3.36H33.6V8.4H38.64V3.36Z" fill="#00245C"/>
<path d="M8.4 33.6H3.36V38.64H8.4V33.6Z" fill="#00245C"/>
</svg>
