<svg width="27" height="16" viewBox="0 0 27 16" fill="none" xmlns="http://www.w3.org/2000/svg">
<path d="M25.5376 5.71421C25.8214 5.71421 26.1053 5.42841 26.1053 5.14262V1.71421C26.1053 0.742732 25.3676 0 24.4028 0H19.8624V15.9995H24.4022C25.3671 15.9995 26.1047 15.2567 26.1047 14.2852V10.8568C26.1044 10.7053 26.0445 10.5601 25.9381 10.453C25.8317 10.3458 25.6875 10.2855 25.537 10.2852C24.9411 10.2759 24.3727 10.0311 23.9545 9.60346C23.5364 9.17585 23.302 8.59982 23.302 7.99973C23.302 7.39963 23.5364 6.8236 23.9545 6.39599C24.3727 5.96839 24.9411 5.7235 25.537 5.71421H25.5376Z" fill="#00245C"/>
<path d="M0 1.71476V5.14317C0 5.48601 0.227182 5.71476 0.567683 5.71476C0.868732 5.71006 1.1677 5.76571 1.44719 5.87846C1.72667 5.99121 1.98109 6.15881 2.19563 6.3715C2.41018 6.5842 2.58055 6.83774 2.69685 7.11737C2.81315 7.39699 2.87304 7.69712 2.87304 8.00027C2.87304 8.30343 2.81315 8.60355 2.69685 8.88318C2.58055 9.16281 2.41018 9.41635 2.19563 9.62904C1.98109 9.84174 1.72667 10.0093 1.44719 10.1221C1.1677 10.2348 0.868732 10.2905 0.567683 10.2858C0.227182 10.2858 0 10.5145 0 10.8574V14.2858C0 15.2573 0.737661 16 1.70251 16H18.7276V0.000548474H1.70251C0.739841 0.000548474 0 0.74328 0 1.71476ZM6.81002 4.57159H10.215C10.5555 4.57159 10.7827 4.80033 10.7827 5.14317C10.7827 5.48601 10.5555 5.71476 10.215 5.71476H6.81002C6.46952 5.71476 6.24234 5.48601 6.24234 5.14317C6.24234 4.80033 6.46952 4.57159 6.81002 4.57159ZM6.81002 7.42841H14.1872C14.5277 7.42841 14.7549 7.65716 14.7549 8C14.7549 8.34284 14.5277 8.57159 14.1872 8.57159H6.81002C6.46952 8.57159 6.24234 8.34284 6.24234 8C6.24234 7.65716 6.46952 7.42841 6.81002 7.42841ZM6.81002 10.2852H14.1872C14.5277 10.2852 14.7549 10.514 14.7549 10.8568C14.7549 11.1997 14.5277 11.4284 14.1872 11.4284H6.81002C6.46952 11.4284 6.24234 11.1997 6.24234 10.8568C6.24234 10.514 6.46952 10.2858 6.81002 10.2858V10.2852Z" fill="#00245C"/>
</svg>
