<svg width="42" height="42" viewBox="0 0 42 42" fill="none" xmlns="http://www.w3.org/2000/svg">
<path d="M26.9724 37.8H9.45C6.5541 37.8 4.2 35.4459 4.2 32.55C4.2 29.6541 6.5541 27.3 9.45 27.3H24.15C28.203 27.3 31.5 24.003 31.5 19.95C31.5 15.897 28.203 12.6 24.15 12.6H13.9419C13.1707 14.1118 12.2156 15.5224 11.0985 16.8H24.15C25.8867 16.8 27.3 18.2133 27.3 19.95C27.3 21.6867 25.8867 23.1 24.15 23.1H9.45C4.2399 23.1 0 27.3399 0 32.55C0 37.7601 4.2399 42 9.45 42H29.5953C28.5663 40.7043 27.6843 39.2952 26.9724 37.8ZM6.3 0C2.8266 0 0 2.8266 0 6.3C0 12.9948 6.3 16.8 6.3 16.8C6.3 16.8 12.6 12.9927 12.6 6.3C12.6 2.8266 9.7734 0 6.3 0ZM6.3 9.45C5.8862 9.44986 5.47648 9.36822 5.09423 9.20974C4.71198 9.05126 4.36468 8.81904 4.07218 8.52634C3.77967 8.23364 3.54769 7.88619 3.38946 7.50383C3.23123 7.12148 3.14986 6.7117 3.15 6.2979C3.15014 5.8841 3.23178 5.47437 3.39026 5.09212C3.54874 4.70987 3.78096 4.36258 4.07366 4.07008C4.36636 3.77757 4.71381 3.54559 5.09617 3.38736C5.47852 3.22913 5.8883 3.14776 6.3021 3.1479C7.13781 3.14818 7.93918 3.48043 8.52992 4.07156C9.12066 4.6627 9.45238 5.46429 9.4521 6.3C9.45182 7.13571 9.11957 7.93708 8.52844 8.52782C7.9373 9.11856 7.13571 9.45028 6.3 9.45Z" fill="#00245C"/>
<path d="M35.7 25.2C32.2266 25.2 29.4 28.0266 29.4 31.5C29.4 38.1948 35.7 42 35.7 42C35.7 42 42 38.1927 42 31.5C42 28.0266 39.1734 25.2 35.7 25.2ZM35.7 34.65C35.2862 34.6499 34.8765 34.5682 34.4942 34.4097C34.112 34.2513 33.7647 34.019 33.4722 33.7263C33.1797 33.4336 32.9477 33.0862 32.7895 32.7038C32.6312 32.3215 32.5499 31.9117 32.55 31.4979C32.5501 31.0841 32.6318 30.6744 32.7903 30.2921C32.9487 29.9099 33.181 29.5626 33.4737 29.2701C33.7664 28.9776 34.1138 28.7456 34.4962 28.5874C34.8785 28.4291 35.2883 28.3478 35.7021 28.3479C36.5378 28.3482 37.3392 28.6804 37.9299 29.2716C38.5207 29.8627 38.8524 30.6643 38.8521 31.5C38.8518 32.3357 38.5196 33.1371 37.9284 33.7278C37.3373 34.3186 36.5357 34.6503 35.7 34.65Z" fill="#00245C"/>
</svg>
