<svg width="17" height="20" viewBox="0 0 17 20" fill="none" xmlns="http://www.w3.org/2000/svg">
<path d="M5.8685 11.218C5.8685 11.8865 5.33625 12.4287 4.68004 12.4287C4.02345 12.4287 3.49119 11.8865 3.49119 11.218V4.28319L2.05406 5.85897C1.60776 6.34761 0.857149 6.37498 0.377848 5.92034C-0.101452 5.4661 -0.128314 4.70147 0.3176 4.21282L3.81162 0.382639L3.89067 0.306801C4.37765 -0.136888 5.12634 -0.0942778 5.56189 0.401793L9.05591 4.36841C9.49146 4.86448 9.44963 5.62716 8.96266 6.07084C8.47607 6.51492 7.72737 6.47231 7.29144 5.97624L5.8685 4.36059V11.218ZM14.9341 14.0236C15.3697 13.5276 16.1184 13.4849 16.6054 13.9286C17.0923 14.3727 17.1342 15.1354 16.6982 15.6315L13.2046 19.5981C12.7687 20.0941 12.02 20.1368 11.5334 19.6927L11.4559 19.6157L7.96031 15.7866C7.51401 15.2984 7.54087 14.5338 8.02056 14.0795C8.49986 13.6249 9.25047 13.6523 9.69638 14.1409L11.1339 15.7167V9.05079C11.1339 8.38194 11.6662 7.84013 12.3224 7.84013C12.9786 7.84013 13.5108 8.38194 13.5108 9.05079V15.6393L14.9341 14.0236Z" fill="#00245C"/>
</svg>
