<svg width="32" height="32" viewBox="0 0 32 32" fill="none" xmlns="http://www.w3.org/2000/svg">
<path d="M16 31.5C24.5604 31.5 31.5 24.5604 31.5 16C31.5 7.43959 24.5604 0.5 16 0.5C7.43959 0.5 0.5 7.43959 0.5 16C0.5 24.5604 7.43959 31.5 16 31.5Z" fill="white"/>
<path d="M28.4385 25.2375C26.9929 23.3021 25.1158 21.7306 22.9564 20.6479C20.7971 19.5651 18.4149 19.0009 15.9993 19.0001C13.5836 18.9994 11.2011 19.562 9.041 20.6434C6.88092 21.7248 5.00284 23.2951 3.556 25.2295C4.99544 27.1738 6.87043 28.7537 9.03062 29.8426C11.1908 30.9316 13.5761 31.4992 15.9952 31.4999C18.4144 31.5007 20.8 30.9347 22.9609 29.8471C25.1218 28.7596 26.9978 27.1808 28.4385 25.2375Z" fill="#00245C"/>
<path d="M16 17C19.3137 17 22 14.3137 22 11C22 7.68629 19.3137 5 16 5C12.6863 5 10 7.68629 10 11C10 14.3137 12.6863 17 16 17Z" fill="#00245C"/>
</svg>
